<svg width="60" height="70" viewBox="0 0 60 70" fill="none" xmlns="http://www.w3.org/2000/svg">
<path d="M10.7537 69.2519L2.89093 52.9928C-3.01902 40.7722 0.443032 26.4461 10.444 18.1533C16.6695 12.9911 22.6091 7.4934 28.0598 1.51881L29.4454 0L32.6674 4.25696C36.643 9.50955 39.6767 15.0949 41.469 20.7543L10.7537 69.2519Z" fill="#72E3AD" fill-opacity="0.5"/>
<path d="M58.7781 20.2803L57.7308 15.0453C52.5546 27.2465 39.2782 33.7296 31.6682 42.1486C18.3599 56.8717 10.7537 69.2519 10.7537 69.2519H18.6332C53.6552 69.2519 63.8464 45.6144 58.7781 20.2803Z" fill="#72E3AD" fill-opacity="0.6"/>
<path d="M57.7308 15.0453L55.8221 15.8094C51.119 17.692 46.3247 19.3227 41.4689 20.7544V20.7545C38.5728 21.6085 35.6549 22.3917 32.7213 23.1153C20.1074 26.2269 10.7537 37.6168 10.7537 51.1914V69.2519C10.7538 69.2519 43.5025 48.5838 57.7308 15.0453Z" fill="#72E3AD"/>
</svg>
