<svg width="50" height="63" viewBox="0 0 50 63" fill="none" xmlns="http://www.w3.org/2000/svg">
<path d="M24.6094 0C11.0398 0 0 11.0398 0 24.6094C0 32.4109 3.65105 39.6555 9.84375 44.2979V48.2344V60.0469C9.84375 61.6778 11.166 63 12.7969 63H36.4219C38.0528 63 39.375 61.6778 39.375 60.0469V48.2344V44.2979C45.5677 39.6555 49.2188 32.4109 49.2188 24.6094C49.2188 11.0398 38.179 0 24.6094 0ZM33.4688 57.0938H15.75V51.1875H33.4688V57.0938ZM34.8089 40.2881C33.973 40.8331 33.4688 41.7637 33.4688 42.7616V45.2813H27.5625V33.4688H30.5156C32.1465 33.4688 33.4688 32.1465 33.4688 30.5156C33.4688 28.8847 32.1465 27.5625 30.5156 27.5625H18.7031C17.0722 27.5625 15.75 28.8847 15.75 30.5156C15.75 32.1465 17.0722 33.4688 18.7031 33.4688H21.6563V45.2813H15.75V42.7618C15.75 41.7639 15.2458 40.8333 14.4099 40.2883C9.08519 36.8158 5.90625 30.9547 5.90625 24.6094C5.90625 14.2965 14.2965 5.90625 24.6094 5.90625C34.9223 5.90625 43.3125 14.2965 43.3125 24.6094C43.3125 30.9547 40.1334 36.8158 34.8089 40.2881Z" fill="#FF79C6"/>
</svg>
