<svg width="51" height="79" viewBox="0 0 51 79" fill="none" xmlns="http://www.w3.org/2000/svg">
<path d="M25.3121 50.3156L33.4188 54.6075C32.674 58.444 29.289 61.3492 25.238 61.3492C20.643 61.3492 16.9047 57.6108 16.9047 53.0158V8.57507C16.9047 8.57378 16.9049 8.57267 16.9049 8.57137C16.9049 3.97637 13.1666 0.238037 8.57156 0.238037C3.97656 0.238037 0.238222 3.97637 0.238222 8.57137L0.238037 53.0158C0.238037 66.801 11.453 78.0158 25.238 78.0158C39.0232 78.0158 50.238 66.801 50.238 53.0158V26.9806L25.3121 50.3156ZM8.57156 5.79359C10.1032 5.79359 11.3493 7.0397 11.3493 8.57137C11.3493 10.103 10.1032 11.3491 8.57156 11.3491C7.03989 11.3491 5.79378 10.103 5.79378 8.57137C5.79378 7.0397 7.03989 5.79359 8.57156 5.79359ZM44.6825 53.0158C44.6825 63.7375 35.9597 72.4603 25.238 72.4603C14.5164 72.4603 5.79359 63.7375 5.79359 53.0158V16.4267C6.66304 16.7353 7.59767 16.9047 8.57156 16.9047C9.54526 16.9047 10.4799 16.7353 11.3491 16.4269V53.0158C11.3491 60.6742 17.5797 66.9047 25.238 66.9047C32.8964 66.9047 39.1269 60.6742 39.1269 53.0158V51.3434L34.7938 49.0493L44.6825 39.7917V53.0158Z" fill="#F87171" stroke="#F87171" stroke-width="0.47619"/>
</svg>
