<svg width="58" height="75" viewBox="0 0 58 75" fill="none" xmlns="http://www.w3.org/2000/svg">
<g clip-path="url(#clip0_12_83)">
<path d="M31.6465 11.911C32.8256 7.73584 29.6411 3.56981 24.5338 2.60591C19.4264 1.642 14.3303 4.24522 13.1511 8.42036L3.18786 43.6993C2.00873 47.8744 5.19318 52.0404 10.3005 53.0044C15.4079 53.9683 20.504 51.365 21.6832 47.1899L31.6465 11.911Z" stroke="#0180CF" stroke-width="6"/>
<path d="M54.8464 30.8766C56.0255 26.7014 52.8411 22.5354 47.7337 21.5715C42.6264 20.6076 37.5302 23.2108 36.3511 27.3859L26.3878 62.6649C25.2087 66.84 28.3931 71.006 33.5005 71.9699C38.6078 72.9338 43.704 70.3306 44.8831 66.1555L54.8464 30.8766Z" stroke="#0180CF" stroke-width="6"/>
</g>
<defs>
<clipPath id="clip0_12_83">
<rect width="58" height="75" fill="white"/>
</clipPath>
</defs>
</svg>
