<svg width="68" height="66" viewBox="0 0 68 66" fill="none" xmlns="http://www.w3.org/2000/svg">
<path d="M34.0001 35.75C35.5649 35.75 36.8334 34.5188 36.8334 33C36.8334 31.4812 35.5649 30.25 34.0001 30.25C32.4353 30.25 31.1667 31.4812 31.1667 33C31.1667 34.5188 32.4353 35.75 34.0001 35.75Z" stroke="#F97316" stroke-width="4" stroke-linecap="round" stroke-linejoin="round"/>
<path d="M57.2333 55.5501C63.0133 49.9676 57.2899 35.3101 44.4833 22.8251C31.6199 10.3951 16.5183 4.84005 10.7666 10.4501C4.98659 16.0326 10.7099 30.6901 23.5166 43.1751C36.3799 55.6051 51.4816 61.1601 57.2333 55.5501Z" stroke="#F97316" stroke-width="6" stroke-linecap="round" stroke-linejoin="round"/>
<path d="M44.4833 43.1751C57.2899 30.6901 63.0133 16.0326 57.2333 10.4501C51.4816 4.84005 36.3799 10.3951 23.5166 22.8251C10.7099 35.3101 4.98659 49.9676 10.7666 55.5501C16.5183 61.1601 31.6199 55.6051 44.4833 43.1751Z" stroke="#F97316" stroke-width="6" stroke-linecap="round" stroke-linejoin="round"/>
</svg>
