<svg width="79" height="79" viewBox="0 0 79 79" fill="none" xmlns="http://www.w3.org/2000/svg">
<mask id="mask0_9_110" style="mask-type:luminance" maskUnits="userSpaceOnUse" x="0" y="0" width="79" height="79">
<path d="M79 0H0V78.8833H79V0Z" fill="white"/>
</mask>
<g mask="url(#mask0_9_110)">
<path d="M39.5003 71.8099C38.35 71.8279 37.215 71.5446 36.2086 70.9882L35.2211 70.4294C27.5293 66.0842 21.1303 59.7784 16.6774 52.1561C12.2245 44.5338 9.8772 35.868 9.87526 27.0436V26.5834C9.86483 25.4196 10.1641 24.2737 10.7424 23.2632C11.3207 22.2526 12.1574 21.4135 13.1669 20.8316L36.2086 7.88155C37.2094 7.30459 38.3446 7.00085 39.5003 7.00085C40.6559 7.00085 41.7911 7.30459 42.7919 7.88155L65.8336 20.8316C66.8431 21.4135 67.6798 22.2526 68.2582 23.2632C68.8364 24.2737 69.1357 25.4196 69.1253 26.5834V27.0436C69.1167 35.8745 66.7595 44.5447 62.2947 52.1676C57.8299 59.7905 51.4175 66.0925 43.7136 70.4294L42.7261 70.9882C41.7391 71.5335 40.6283 71.8165 39.5003 71.8099Z" fill="#8062D6" fill-opacity="0.44"/>
<mask id="mask1_9_110" style="mask-type:luminance" maskUnits="userSpaceOnUse" x="0" y="0" width="78" height="79">
<path d="M77.42 0H0V79H77.42V0Z" fill="white"/>
</mask>
<g mask="url(#mask1_9_110)">
<path d="M38.9076 74.5553C37.6424 74.5751 36.3939 74.263 35.2868 73.6501L34.2006 73.0345C25.7397 68.2476 18.7007 61.3011 13.8024 52.9041C8.9043 44.5072 6.32224 34.9607 6.32011 25.2395V24.7327C6.30863 23.4505 6.6378 22.1883 7.27396 21.075C7.91017 19.9617 8.83044 19.0373 9.94091 18.3962L35.2868 4.13011C36.3876 3.49452 37.6365 3.15991 38.9076 3.15991C40.1787 3.15991 41.4276 3.49452 42.5284 4.13011L67.8743 18.3962C68.9848 19.0373 69.9051 19.9617 70.5413 21.075C71.1774 22.1883 71.5066 23.4505 71.4951 24.7327V25.2395C71.4858 34.9679 68.8928 44.5193 63.9815 52.9168C59.0702 61.3144 52.0167 68.257 43.5423 73.0345L42.4561 73.6501C41.3704 74.2509 40.1484 74.5625 38.9076 74.5553ZM38.9076 10.4666L13.5618 24.7327V25.2395C13.5679 33.6801 15.8175 41.9672 20.0804 49.2523C24.3432 56.5372 30.4659 62.5581 37.8214 66.6981L38.9076 67.3137L39.9939 66.6981C47.3493 62.5581 53.4721 56.5372 57.7348 49.2523C61.9977 41.9672 64.2473 33.6801 64.2534 25.2395V24.7327L38.9076 10.4666Z" fill="#8062D6"/>
</g>
</g>
</svg>
