<svg width="78" height="78" viewBox="0 0 78 78" fill="none" xmlns="http://www.w3.org/2000/svg">
<path d="M75.0012 43.7974C75.0012 43.7974 21.317 43.7974 20.8781 43.7974C14.7588 43.7974 9.82802 38.8992 9.82802 32.7672C9.82802 29.7316 11.0469 26.9832 13.0158 24.9771L20.1773 32.1534C24.3249 36.3096 31.0506 36.3096 35.1982 32.1534L24.267 21.1993C21.6766 18.6066 17.6358 18.3684 14.7711 20.4694C16.8679 17.5988 16.6301 13.5496 14.0428 10.9538L3.11134 0C-1.03629 4.15623 -1.03629 10.8958 3.11134 15.0521L9.50179 21.4558C3.58089 26.687 0 33.4846 0 40.9206C0 57.3225 17.4253 70.637 39.0075 70.8141V77.9997C39.0075 77.9997 42.4358 78.076 45.3156 75.6769C47.4935 73.8624 48.7597 71.0663 48.7597 68.2276V59.3779C52.6972 58.4434 59.0418 56.3334 64.0459 51.1266H66.4685C63.2869 55.3377 56.9237 59.1549 50.5881 60.801V64.273C59.6147 62.0255 66.761 57.1913 70.5855 51.1266H72.7095C68.7386 58.1441 60.7634 63.7296 50.5878 66.1573V68.2276C50.5878 68.6978 50.5574 69.159 50.5023 69.6141C64.1001 66.6061 74.6626 58.2083 77.8686 47.6695C78.454 45.7427 77.0094 43.7974 75.0012 43.7974ZM54.5862 52.3725H53.0776C52.4041 52.3725 51.8587 51.826 51.8587 51.1511C51.8587 50.4762 52.4041 49.9297 53.0776 49.9297H54.5862C55.2597 49.9297 55.8051 50.4762 55.8051 51.1511C55.8051 51.8257 55.2597 52.3725 54.5862 52.3725Z" fill="#0062FF"/>
</svg>
