<svg width="133" height="133" viewBox="0 0 133 133" fill="none" xmlns="http://www.w3.org/2000/svg">
<g clip-path="url(#clip0_16_5)">
<path d="M66.5 0C48.8631 0 31.9486 7.00623 19.4774 19.4774C7.00623 31.9486 0 48.8631 0 66.5C0 84.1369 7.00623 101.051 19.4774 113.523C31.9486 125.994 48.8631 133 66.5 133C79.6409 132.974 92.4795 129.055 103.395 121.739L48.8505 51.2673V93.0771H39.9V39.9H51.0886L110.445 116.358C117.526 110.123 123.2 102.453 127.089 93.8567C130.978 85.2604 132.993 75.935 133 66.5C133 48.8631 125.994 31.9486 113.523 19.4774C101.051 7.00623 84.1369 0 66.5 0ZM84.9714 39.9H93.8388V90.5813L84.9714 78.9376V39.9Z" fill="white"/>
</g>
<defs>
<clipPath id="clip0_16_5">
<rect width="133" height="133" fill="white"/>
</clipPath>
</defs>
</svg>
