<svg width="530" height="530" viewBox="0 0 530 530" fill="none" xmlns="http://www.w3.org/2000/svg">
<g clip-path="url(#clip0_16_2)">
<path d="M291.655 0.132513C285.129 -0.291884 278.586 0.630047 272.431 2.84104C266.277 5.05203 260.643 8.50485 255.88 12.985C246.729 21.6033 241.369 33.4987 240.976 46.0628C240.583 58.6269 245.188 70.8342 253.782 80.0079L329.042 158.404C335.886 165.731 341.003 174.497 344.018 184.06C347.033 193.623 347.869 203.739 346.465 213.666C345.061 223.594 341.452 233.082 335.904 241.433C330.356 249.785 323.008 256.788 314.4 261.93L304.176 267.208V160.877C259.36 183.965 220.229 216.716 189.608 256.765C158.988 296.815 137.642 343.163 127.112 392.465V392.84L271.735 319.347V487.644L304.286 530V302.144L324.095 291.92C337.771 285.029 349.644 275.032 358.765 262.73C367.885 250.428 373.999 236.162 376.618 221.074C379.236 205.985 378.286 190.493 373.844 175.838C369.402 161.182 361.591 147.77 351.037 136.674L276.616 58.83C273.654 55.6228 272.078 51.3759 272.231 47.013C272.384 42.65 274.254 38.524 277.433 35.5321C280.644 32.5664 284.897 30.9903 289.266 31.1475C293.634 31.3047 297.763 33.1824 300.753 36.3713L311.066 47.1038L310.933 47.2363L400.813 140.958C400.93 141.079 401.071 141.176 401.226 141.242C401.382 141.308 401.549 141.342 401.718 141.342C401.887 141.342 402.054 141.308 402.21 141.242C402.365 141.176 402.506 141.079 402.623 140.958C402.785 140.733 402.872 140.462 402.872 140.185C402.872 139.908 402.785 139.637 402.623 139.412L333.282 25.8375L329.991 28.9954L333.282 25.7933C320.076 8.67876 305.39 1.19251 291.655 0.132513ZM271.735 217.985V284.102L180.045 331.559C195.263 299.34 215.935 269.993 241.15 244.816C250.745 235.21 260.962 226.247 271.735 217.985Z" fill="#C72C48"/>
</g>
<defs>
<clipPath id="clip0_16_2">
<rect width="530" height="530" fill="white"/>
</clipPath>
</defs>
</svg>
