<?xml version="1.0" encoding="UTF-8"?>
<svg id="Calque_2" data-name="Calque 2" xmlns="http://www.w3.org/2000/svg" viewBox="0 0 99.54 34.47">
  <defs>
    <style>
      .cls-1 {
        fill: #043873;
      }

      .cls-2 {
        fill: #ff4e4e;
      }
    </style>
  </defs>
  <g id="Calque_1-2" data-name="Calque 1">
    <g>
      <g>
        <path class="cls-1" d="M24.15,7.12c-2.56-2.81-6.1-4.55-10-4.55H2.98s-2.98,0-2.98,0v16.21c4.83-2.52,10.68-3.89,16.8-4.1-3.71-.58-7.37-.66-10.85-.34v-5.24s8.2,0,8.2,0c2.25,0,4.3,1.01,5.79,2.64.79.87,1.42,1.91,1.84,3.07,2.17.2,4.31.55,6.37,1.03-.45-3.38-1.9-6.41-4.01-8.71Z"/>
        <path class="cls-2" d="M28.3,17.62c0,.15,0,.3,0,.45,0,4.27-1.59,8.14-4.16,10.95-2.56,2.81-6.1,4.55-10,4.55H0s0-7.74,0-7.74c7.44-7.45,19.16-10.75,31.01-8.25-.91-.02-1.81-.01-2.71.03ZM6.55,27.06h7.6c2.25,0,4.3-1.01,5.79-2.64,1.42-1.56,2.32-3.67,2.4-6-6.16,1.36-11.67,4.34-15.79,8.64Z"/>
      </g>
      <path class="cls-1" d="M42.71,34.47c-7.93,0-12.4-5.54-12.4-12.05s4.16-12.05,11.47-12.05c6.2,0,10.28,4.21,10.28,10.06,0,1.24-.18,2.39-.35,3.15h-15.64c.53,4.16,3.1,5.85,6.6,5.85,2.44,0,4.56-1.06,5.76-2.66l4.03,3.19c-2.08,2.79-5.54,4.52-9.75,4.52ZM36.24,19.49h10.28c-.09-2.26-1.73-4.52-4.87-4.52-2.88,0-4.78,1.59-5.4,4.52ZM39.47,7.71L44.08.35h6.11l-5.32,7.35h-5.4Z"/>
      <path class="cls-1" d="M55.33.35h5.63v33.23h-5.63V.35Z"/>
      <path class="cls-1" d="M64.63,3.68c0-1.99,1.68-3.68,3.68-3.68s3.63,1.68,3.63,3.68-1.64,3.68-3.63,3.68-3.68-1.68-3.68-3.68ZM65.48,11.25h5.63v22.33h-5.63V11.25Z"/>
      <path class="cls-1" d="M88.2,34.47c-3.06,0-5.23-.97-6.96-2.7v1.82h-5.63V.35h5.63v12.71c1.73-1.73,3.9-2.7,6.96-2.7,7.09,0,11.34,5.54,11.34,12.05s-4.25,12.05-11.34,12.05ZM81.25,18.87v7.09c1.51,2.08,3.63,3.19,6.16,3.19,3.81,0,6.29-2.84,6.29-6.73s-2.48-6.73-6.29-6.73c-2.61,0-4.78,1.15-6.16,3.19Z"/>
    </g>
  </g>
</svg>